<svg id="visual" viewBox="0 0 900 600" width="900" height="600" xmlns="http://www.w3.org/2000/svg" xmlns:xlink="http://www.w3.org/1999/xlink" version="1.1"><rect x="0" y="0" width="900" height="600" fill="#001220"></rect><path d="M0 477L11.5 478.2C23 479.3 46 481.7 69 481.7C92 481.7 115 479.3 138.2 476C161.3 472.7 184.7 468.3 207.8 475C231 481.7 254 499.3 277 507C300 514.7 323 512.3 346 505.5C369 498.7 392 487.3 415.2 483.8C438.3 480.3 461.7 484.7 484.8 482.7C508 480.7 531 472.3 554 466.3C577 460.3 600 456.7 623 459.7C646 462.7 669 472.3 692.2 480.5C715.3 488.7 738.7 495.3 761.8 496.8C785 498.3 808 494.7 831 495.8C854 497 877 503 888.5 506L900 509L900 601L888.5 601C877 601 854 601 831 601C808 601 785 601 761.8 601C738.7 601 715.3 601 692.2 601C669 601 646 601 623 601C600 601 577 601 554 601C531 601 508 601 484.8 601C461.7 601 438.3 601 415.2 601C392 601 369 601 346 601C323 601 300 601 277 601C254 601 231 601 207.8 601C184.7 601 161.3 601 138.2 601C115 601 92 601 69 601C46 601 23 601 11.5 601L0 601Z" fill="#fa7268"></path><path d="M0 473L11.5 475.3C23 477.7 46 482.3 69 491C92 499.7 115 512.3 138.2 518.5C161.3 524.7 184.7 524.3 207.8 516C231 507.7 254 491.3 277 491.3C300 491.3 323 507.7 346 507.5C369 507.3 392 490.7 415.2 487.2C438.3 483.7 461.7 493.3 484.8 496.8C508 500.3 531 497.7 554 498.7C577 499.7 600 504.3 623 503.5C646 502.7 669 496.3 692.2 489.7C715.3 483 738.7 476 761.8 481.2C785 486.3 808 503.7 831 504C854 504.3 877 487.7 888.5 479.3L900 471L900 601L888.5 601C877 601 854 601 831 601C808 601 785 601 761.8 601C738.7 601 715.3 601 692.2 601C669 601 646 601 623 601C600 601 577 601 554 601C531 601 508 601 484.8 601C461.7 601 438.3 601 415.2 601C392 601 369 601 346 601C323 601 300 601 277 601C254 601 231 601 207.8 601C184.7 601 161.3 601 138.2 601C115 601 92 601 69 601C46 601 23 601 11.5 601L0 601Z" fill="#f36567"></path><path d="M0 486L11.5 492.5C23 499 46 512 69 517C92 522 115 519 138.2 519.8C161.3 520.7 184.7 525.3 207.8 521.5C231 517.7 254 505.3 277 506.3C300 507.3 323 521.7 346 529.7C369 537.7 392 539.3 415.2 540.3C438.3 541.3 461.7 541.7 484.8 538.8C508 536 531 530 554 529.5C577 529 600 534 623 529.3C646 524.7 669 510.3 692.2 505.3C715.3 500.3 738.7 504.7 761.8 504.7C785 504.7 808 500.3 831 497.3C854 494.3 877 492.7 888.5 491.8L900 491L900 601L888.5 601C877 601 854 601 831 601C808 601 785 601 761.8 601C738.7 601 715.3 601 692.2 601C669 601 646 601 623 601C600 601 577 601 554 601C531 601 508 601 484.8 601C461.7 601 438.3 601 415.2 601C392 601 369 601 346 601C323 601 300 601 277 601C254 601 231 601 207.8 601C184.7 601 161.3 601 138.2 601C115 601 92 601 69 601C46 601 23 601 11.5 601L0 601Z" fill="#eb5967"></path><path d="M0 521L11.5 518.8C23 516.7 46 512.3 69 516C92 519.7 115 531.3 138.2 537.2C161.3 543 184.7 543 207.8 540.5C231 538 254 533 277 534.8C300 536.7 323 545.3 346 548.8C369 552.3 392 550.7 415.2 545.8C438.3 541 461.7 533 484.8 526.3C508 519.7 531 514.3 554 512.5C577 510.7 600 512.3 623 514C646 515.7 669 517.3 692.2 521.3C715.3 525.3 738.7 531.7 761.8 535C785 538.3 808 538.7 831 533.2C854 527.7 877 516.3 888.5 510.7L900 505L900 601L888.5 601C877 601 854 601 831 601C808 601 785 601 761.8 601C738.7 601 715.3 601 692.2 601C669 601 646 601 623 601C600 601 577 601 554 601C531 601 508 601 484.8 601C461.7 601 438.3 601 415.2 601C392 601 369 601 346 601C323 601 300 601 277 601C254 601 231 601 207.8 601C184.7 601 161.3 601 138.2 601C115 601 92 601 69 601C46 601 23 601 11.5 601L0 601Z" fill="#e34c67"></path><path d="M0 531L11.5 533.8C23 536.7 46 542.3 69 547.2C92 552 115 556 138.2 556.7C161.3 557.3 184.7 554.7 207.8 549.5C231 544.3 254 536.7 277 534.8C300 533 323 537 346 536.3C369 535.7 392 530.3 415.2 531.2C438.3 532 461.7 539 484.8 544.7C508 550.3 531 554.7 554 552.7C577 550.7 600 542.3 623 540.7C646 539 669 544 692.2 544.3C715.3 544.7 738.7 540.3 761.8 539.8C785 539.3 808 542.7 831 543.7C854 544.7 877 543.3 888.5 542.7L900 542L900 601L888.5 601C877 601 854 601 831 601C808 601 785 601 761.8 601C738.7 601 715.3 601 692.2 601C669 601 646 601 623 601C600 601 577 601 554 601C531 601 508 601 484.8 601C461.7 601 438.3 601 415.2 601C392 601 369 601 346 601C323 601 300 601 277 601C254 601 231 601 207.8 601C184.7 601 161.3 601 138.2 601C115 601 92 601 69 601C46 601 23 601 11.5 601L0 601Z" fill="#da3f67"></path><path d="M0 556L11.5 558.2C23 560.3 46 564.7 69 567.2C92 569.7 115 570.3 138.2 567.7C161.3 565 184.7 559 207.8 559.7C231 560.3 254 567.7 277 570.3C300 573 323 571 346 571.5C369 572 392 575 415.2 572.5C438.3 570 461.7 562 484.8 557.5C508 553 531 552 554 555.7C577 559.3 600 567.7 623 570.5C646 573.3 669 570.7 692.2 568C715.3 565.3 738.7 562.7 761.8 561.3C785 560 808 560 831 560.3C854 560.7 877 561.3 888.5 561.7L900 562L900 601L888.5 601C877 601 854 601 831 601C808 601 785 601 761.8 601C738.7 601 715.3 601 692.2 601C669 601 646 601 623 601C600 601 577 601 554 601C531 601 508 601 484.8 601C461.7 601 438.3 601 415.2 601C392 601 369 601 346 601C323 601 300 601 277 601C254 601 231 601 207.8 601C184.7 601 161.3 601 138.2 601C115 601 92 601 69 601C46 601 23 601 11.5 601L0 601Z" fill="#d03267"></path><path d="M0 580L11.5 578.8C23 577.7 46 575.3 69 573.5C92 571.7 115 570.3 138.2 570.7C161.3 571 184.7 573 207.8 575.3C231 577.7 254 580.3 277 578.5C300 576.7 323 570.3 346 568.7C369 567 392 570 415.2 570.8C438.3 571.7 461.7 570.3 484.8 572.8C508 575.3 531 581.7 554 580.8C577 580 600 572 623 570C646 568 669 572 692.2 573.7C715.3 575.3 738.7 574.7 761.8 573C785 571.3 808 568.7 831 569.8C854 571 877 576 888.5 578.5L900 581L900 601L888.5 601C877 601 854 601 831 601C808 601 785 601 761.8 601C738.7 601 715.3 601 692.2 601C669 601 646 601 623 601C600 601 577 601 554 601C531 601 508 601 484.8 601C461.7 601 438.3 601 415.2 601C392 601 369 601 346 601C323 601 300 601 277 601C254 601 231 601 207.8 601C184.7 601 161.3 601 138.2 601C115 601 92 601 69 601C46 601 23 601 11.5 601L0 601Z" fill="#c62368"></path></svg>